<?xml version="1.0" encoding="utf-8"?>
<!-- Generator: Adobe Illustrator 28.0.0, SVG Export Plug-In . SVG Version: 6.00 Build 0)  -->
<svg version="1.1" baseProfile="tiny" id="图层_1"
	 xmlns="http://www.w3.org/2000/svg" xmlns:xlink="http://www.w3.org/1999/xlink" x="0px" y="0px" viewBox="0 0 384 512"
	 overflow="visible" xml:space="preserve">
<g>
	<g>
		<path fill="none" d="M185.8,397.9V296.4c-8.1,4-21.2,7.6-37.4,9.8v3l11.2,1c12.3,1,13.3,2.4,13.3,11v76.7
			c0,13.4-1.6,15.6-25.9,17.4v2.8H212v-2.8C187.7,413.6,185.8,411.4,185.8,397.9z"/>
		<path d="M256,160c-17.7,0-32-14.3-32-32V0H64C28.7,0,0,28.7,0,64v384c0,35.3,28.7,64,64,64h256c35.3,0,64-28.7,64-64V160H256z
			 M212,418.2h-64.9v-2.8c24.3-1.8,25.9-4,25.9-17.4v-76.7c0-8.6-1-10-13.3-11l-11.2-1v-3c16.2-2.2,29.3-5.8,37.4-9.8v101.5
			c0,13.4,1.8,15.6,26.2,17.4V418.2z"/>
	</g>
	<polygon points="256,0 256,128 384,128 	"/>
	<path fill="none" d="M185.8,397.9V296.4c-8.1,4-21.2,7.6-37.4,9.8v3l11.2,1c12.3,1,13.3,2.4,13.3,11v76.7
		c0,13.4-1.6,15.6-25.9,17.4v2.8H212v-2.8C187.7,413.6,185.8,411.4,185.8,397.9z"/>
</g>
</svg>
